<?xml version="1.0" encoding="iso-8859-1"?>
<!-- Uploaded to: SVG Repo, www.svgrepo.com, Generator: SVG Repo Mixer Tools -->
<svg fill="#000000" height="800px" width="800px" version="1.1" id="Layer_1" xmlns="http://www.w3.org/2000/svg" xmlns:xlink="http://www.w3.org/1999/xlink" 
	 viewBox="0 0 512 512" xml:space="preserve">
<g>
	<g>
		<path d="M256,0C114.62,0,0,114.62,0,256s114.62,256,256,256s256-114.62,256-256S397.38,0,256,0z M256,486.4
			C128.956,486.4,25.6,383.044,25.6,256S128.956,25.6,256,25.6S486.4,128.956,486.4,256S383.044,486.4,256,486.4z"/>
	</g>
</g>
<g>
	<g>
		<path d="M341.854,246.955l-128-128.009c-5.001-5.001-13.099-5.001-18.099,0c-5.001,5-5.001,13.099,0,18.099L314.701,256
			L195.746,374.946c-5.001,5-5.001,13.099,0,18.099c2.5,2.509,5.777,3.755,9.054,3.755c3.277,0,6.554-1.246,9.054-3.746l128-128
			C346.854,260.053,346.854,251.955,341.854,246.955z"/>
	</g>
</g>
</svg>